# xmcd CD database file
#
# Track frame offsets:
#	150
#	10455
#	19295
#	30542
#	41217
#	51585
#	66322
#	75662
#	86905
#	97292
#	106812
#	116417
#	125657
#	138282
#	149092
#	158977
#
# Disc length: 2281 seconds
#
# Revision: 3
# Processed by: cddbd v1.5.2PL0 Copyright (c) Steve Scherf et al.
# Submitted via: jetAudio 7
#
DISCID=ef08e710
DTITLE=Floyd Cramer - RCA Country Legends
DYEAR=1900
DGENRE=Country
TTITLE0=Flip, Flop And Bop
TTITLE1=The Swingin' Shepherd Blues
TTITLE2=Last Date
TTITLE3=San Antonio Rose
TTITLE4=Stormy Weather
TTITLE5=Rhythm Of The Rain
TTITLE6=Java
TTITLE7=Drown In My Own Tears
TTITLE8=Don't Get Around Much Anymore
TTITLE9=Midnight
TTITLE10=Stood Up
TTITLE11=Dallas
TTITLE12=The Lonesome Road
TTITLE13=Yesterdays
TTITLE14=Tricky
TTITLE15=Woodchopper's Ball
EXTD=
EXTT0=
EXTT1=
EXTT2=
EXTT3=
EXTT4=
EXTT5=
EXTT6=
EXTT7=
EXTT8=
EXTT9=
EXTT10=
EXTT11=
EXTT12=
EXTT13=
EXTT14=
EXTT15=
PLAYORDER=
